<svg width="24" height="20" viewBox="0 0 24 20" fill="none" xmlns="http://www.w3.org/2000/svg">
<path d="M23.143 2.93695C22.308 3.30695 21.411 3.55696 20.468 3.66996C21.441 3.08775 22.169 2.17142 22.516 1.09195C21.6019 1.63494 20.6014 2.01715 19.558 2.22196C18.8564 1.47282 17.9271 0.976281 16.9143 0.809429C15.9016 0.642577 14.8621 0.814746 13.9572 1.29921C13.0524 1.78367 12.3328 2.55332 11.9102 3.48866C11.4875 4.424 11.3855 5.4727 11.62 6.47195C9.7677 6.37895 7.95564 5.8975 6.30144 5.05886C4.64723 4.22022 3.18785 3.04312 2.01801 1.60396C1.61801 2.29396 1.38801 3.09396 1.38801 3.94596C1.38757 4.71295 1.57644 5.4682 1.93789 6.14469C2.29934 6.82118 2.82217 7.39799 3.46001 7.82396C2.72029 7.80042 1.99688 7.60054 1.35001 7.24095V7.30095C1.34994 8.3767 1.72204 9.41933 2.40319 10.252C3.08434 11.0846 4.03258 11.6559 5.08701 11.869C4.4008 12.0547 3.68135 12.082 2.98301 11.949C3.28051 12.8746 3.86001 13.684 4.64038 14.2639C5.42075 14.8438 6.36293 15.1651 7.33501 15.183C5.68484 16.4784 3.6469 17.181 1.54901 17.178C1.17739 17.1781 0.806088 17.1564 0.437012 17.113C2.56649 18.4821 5.04535 19.2088 7.57701 19.206C16.147 19.206 20.832 12.108 20.832 5.95195C20.832 5.75196 20.827 5.54995 20.818 5.34995C21.7293 4.69093 22.5159 3.87485 23.141 2.93995L23.143 2.93695Z" fill="#616161"/>
</svg>
